<svg width="151" height="151" viewBox="0 0 151 151" fill="none" xmlns="http://www.w3.org/2000/svg">
<path d="M31.9114 7.53824e-05C27.7182 -0.00904845 23.5645 0.810135 19.6887 2.4106C15.8129 4.01106 12.2914 6.36128 9.32634 9.32634C6.36128 12.2914 4.01106 15.8129 2.4106 19.6887C0.810135 23.5645 -0.00904845 27.7182 7.53824e-05 31.9114V119.089C-0.00904845 123.282 0.810135 127.436 2.4106 131.311C4.01106 135.187 6.36128 138.709 9.32634 141.674C12.2914 144.639 15.8129 146.989 19.6887 148.59C23.5645 150.19 27.7182 151.009 31.9114 151H119.089C123.282 151.009 127.436 150.19 131.311 148.59C135.187 146.989 138.709 144.639 141.674 141.674C144.639 138.709 146.989 135.187 148.59 131.311C150.19 127.436 151.009 123.282 151 119.089V31.9114C151.009 27.7182 150.19 23.5645 148.59 19.6887C146.989 15.8129 144.639 12.2914 141.674 9.32634C138.709 6.36128 135.187 4.01106 131.311 2.4106C127.436 0.810135 123.282 -0.00904845 119.089 7.53824e-05H31.9114ZM75.4246 27.4947L77.784 29.9736C87.2844 40.0088 101.585 44.35 117.094 47.9237L119.542 48.5151V51.0192C119.542 84.4405 104.643 114.087 76.469 123.191L75.5378 123.524L74.6004 123.241C60.0226 118.894 49.1128 108.821 42.0032 95.9103C34.8937 82.9997 31.4584 67.258 31.4584 51.0255V48.2383L34.2267 47.9048C50.1635 45.9544 63.527 40.8582 73.1533 30.0491L75.4246 27.4947ZM75.5756 35.8689C65.5781 45.9292 52.5732 51.1513 38.0017 53.3597C38.3289 67.8305 41.3741 81.7351 47.5147 92.8714C53.8064 104.31 63.1307 112.709 75.4686 116.704C99.163 108.443 112.325 83.3584 112.986 53.2716C99.1316 49.9622 85.7555 45.3819 75.5693 35.8689H75.5756ZM92.2988 62.8035L96.4513 67.5348L69.0637 91.4998L54.4041 76.8402L58.8523 72.392L69.3594 82.8865L92.2988 62.8035Z" fill="#7EE17D"/>
</svg>
